<?xml version="1.0" encoding="iso-8859-1"?>
<!-- Generator: Adobe Illustrator 19.0.1, SVG Export Plug-In . SVG Version: 6.00 Build 0)  -->
<svg version="1.1" xmlns="http://www.w3.org/2000/svg" xmlns:xlink="http://www.w3.org/1999/xlink" x="0px" y="0px"
	 viewBox="0 0 128 128" style="enable-background:new 0 0 128 128;" xml:space="preserve">
<g id="_x32_8">
	<path id="_x32_8_1_" transform="matrix(0.16202479,0,0,0.16202479,3094.419,1328.8073)" style="fill:#171617;" d="
		M-18674.043-7728.692h284.914c-59.447,114.231-157.586,207.28-309.061,287.909c-3.686,1.94-8.049-0.501-11.734-2.442
		c-152.541-81.308-251.068-171.235-310.516-285.466h100.176c14.158,0,27.154-2.975,33.555-15.588l24.922,143.615
		c2.617,14.845,13.867,28.243,28.512,31.639c20.268,4.754,40.535-7.03,45.287-27.308l55.373-239.58l22.012,83.301
		C-18706.434-7735.828-18691.4-7728.692-18674.043-7728.692z M-18311.162-7951.009c0,38.131-10.084,88.875-33.262,145.732
		c0,0.194-0.098,1.613-0.195,1.807l-4.75,11.316h-295.193l-52.852-214.002c-4.072-16.397-18.619-28.556-35.59-29.041
		c-17.939-0.486-33.65,11.434-37.725,28.898l-48.971,212.528l-14.838-84.392c-2.23-12.614-10.668-23.325-22.4-28.273
		c-19.201-8.15-41.312,1.982-49.459,21.193l-38.887,93.089h-114.139c-26.379-63.461-38.082-117.365-38.082-157.825
		c0-116.916,82.541-222.444,209.398-222.444v0.097c88.799,0,160.076,67.142,183.35,97.608
		c23.371-30.466,85.906-97.608,183.076-97.608C-18397.066-8172.325-18311.162-8067.926-18311.162-7951.009z M-18663.375-7766.769
		l-57.604-228.053c-1.357-5.531-6.109-13.102-11.832-13.102h-1.26c-5.527,0-10.086,3.026-11.346,8.46l-76.805,332.16l-36.27-206.406
		c-1.26-6.792-7.758-11.205-14.643-9.943c-4.074,0.776-7.564,7.494-9.213,11.375l-43.145,105.509h-160.107
		c-6.982,0-12.703,12.379-12.801,19.269c-0.096,6.986,5.432,6.116,12.414,6.116h168.834c5.041,0,9.6-0.76,11.539-5.417
		l29.764-80.749l39.564,225.261c1.262,6.888,7.855,11.275,14.645,10.014c4.945-0.874,8.824-4.914,9.988-9.765l78.938-343.21
		l47.227,196.093c1.455,5.627,6.498,7.772,12.219,7.772h300.818l9.211-25.385H-18663.375z"/>
</g>
<g id="Layer_1">
</g>
</svg>
